Simulation
nRows=49
nColumns=15
endheader
time  TH_x TH_y TH_z SC_y  SC_z  SC_x  AC_y  AC_z  AC_x  GH_y  GH_z  GH_yy  EL_x  PS_y
1.95  0.000000  0.000000  0.000000  -30.332242535119  8.212593846564756  38.45124231293022  61.66182903746957  -1.4760364852954406  -6.95527761764658  50.45275195434076  59.68257372782096  -43.75032144238862  22.37422834853206  0.000000
1.989  0.000000  0.000000  0.000000  -30.10991293539339  7.812365502026131  38.89676652353649  61.614841949417816  -2.717761487062265  -7.8927739233522205  50.39782509557332  58.72658837140131  -42.72536390332633  22.572657519282277  0.000000
2.028  0.000000  0.000000  0.000000  -29.86253293269494  7.3865125432229775  39.377301512370884  61.50737562509888  -3.9764627217455137  -8.88170598971076  50.44364351926123  57.55034627733187  -41.84100991222041  22.76589575667332  0.000000
2.067  0.000000  0.000000  0.000000  -29.598744924552843  6.941599019697343  39.73894582014153  61.35727976433686  -5.093522607625481  -9.839404928548088  50.601319083354376  56.14153087172002  -41.12871526233778  22.938963407167442  0.000000
2.106  0.000000  0.000000  0.000000  -29.297509859671337  6.484927433911366  39.7369598852288  61.16158860045553  -5.89147445909948  -10.657341624182855  50.83597000039327  54.55505054268542  -40.499124299162396  23.08018046278777  0.000000
2.145  0.000000  0.000000  0.000000  -28.94148122120392  6.02146437190563  39.042085807501664  60.936907429793905  -6.123500933800777  -11.189324728736704  51.08173155671832  52.90242294178637  -39.80243553461209  23.182480884097227  0.000000
2.184  0.000000  0.000000  0.000000  -28.534828464969078  5.621267880837606  37.120133719844496  60.624116877835434  -5.407109902806641  -11.17163952322593  51.31963317491523  51.388739468264404  -38.89868436430963  23.28809190393721  0.000000
2.223  0.000000  0.000000  0.000000  -28.074128984829624  5.311966125242428  32.88547526367662  60.23483136994741  -2.866735408449955  -10.053187034272812  51.44589356001992  50.18344484865978  -37.73107338306399  23.377611351016007  0.000000
2.262  0.000000  0.000000  0.000000  -27.587564100120897  4.8782266077875605  26.347464952661568  59.82037355777281  1.5099349309332206  -7.784288533036583  51.218800137659315  49.120871947692045  -36.29571201182464  23.44054694351654  0.000000
2.301  0.000000  0.000000  0.000000  -27.200443275366503  4.224049817184368  19.544730862632107  59.3731350979018  6.0704092236186415  -5.247310767266435  50.66836833272974  47.81777332636719  -34.650466139046365  23.47781017842735  0.000000
2.34  0.000000  0.000000  0.000000  -26.9809510115365  3.510484467706365  14.155307483038925  59.00747463592744  9.469140533206394  -3.188449276793117  49.96228488662359  46.09329686500996  -32.896947731303804  23.47783397440388  0.000000
2.379  0.000000  0.000000  0.000000  -26.797446673343284  2.841145397827436  10.572822674391178  58.73082983522977  11.390931772052076  -1.9305290976131597  49.17377698289369  44.13334730058037  -31.064808694656534  23.51504848586034  0.000000
2.418  0.000000  0.000000  0.000000  -26.59683123933405  2.2612713628846777  8.5532945715126  58.495858316053905  11.984312886222682  -1.428742512649844  48.28548013826215  42.1819857234714  -29.06518645634012  23.657482367073975  0.000000
2.457  0.000000  0.000000  0.000000  -26.40275766014837  1.7533455521109098  7.483427552471363  58.256478819355095  11.737062245716283  -1.3943581850900808  47.24215598601488  40.32852045692815  -26.800758608865408  23.910026533218577  0.000000
2.496  0.000000  0.000000  0.000000  -26.19272987595797  1.2753621169309652  6.842834043666121  57.93306053104976  11.093925703299762  -1.6025075445166954  45.99344854751851  38.563022356821094  -24.2205589377421  24.248763087453415  0.000000
2.535  0.000000  0.000000  0.000000  -26.002479745247218  0.8206898137163929  6.375567625715317  57.531474652628404  10.29676755527559  -1.908708992047796  44.494393366664355  36.83890892111456  -21.309059054966237  24.662370779923158  0.000000
2.574  0.000000  0.000000  0.000000  -25.85782308401702  0.39546784474897007  5.987319628055849  57.05788773505284  9.446729062146455  -2.2430682814648786  42.72838512413974  35.142484440505136  -18.07247747875532  25.156679273651456  0.000000
2.613  0.000000  0.000000  0.000000  -25.761923677168852  0.010863172176770637  5.645992724398762  56.53796885919735  8.592135355042753  -2.5773047222647896  40.68685433421112  33.476402942695664  -14.553684192212609  25.709375392919615  0.000000
2.652  0.000000  0.000000  0.000000  -25.707766566902084  -0.3286651293109812  5.3280444261831645  55.995416182808555  7.755149775333096  -2.8800971333943153  38.3735044672154  31.84463799351538  -10.828946808897665  26.279114756764727  0.000000
2.691  0.000000  0.000000  0.000000  -25.678278591655122  -0.619653948989172  5.01402097655481  55.460658844796406  6.957694635331214  -3.132628470703257  35.806093415053645  30.242010174830444  -7.005119454691174  26.809318515852695  0.000000
2.73  0.000000  0.000000  0.000000  -25.664143554263738  -0.864361494032822  4.699831387564976  54.94375911998599  6.2175691965743916  -3.329630877805532  33.03950254253799  28.653826928084165  -3.1840039500311392  27.251454675270264  0.000000
2.769  0.000000  0.000000  0.000000  -25.66337236877231  -1.0580477236942893  4.392465758384687  54.426457967031666  5.550752740761348  -3.499811947628179  30.169387609537516  27.07405979246792  0.5416895041886818  27.578854125712727  0.000000
2.808  0.000000  0.000000  0.000000  -25.680825613090242  -1.194901788788846  4.109887685212494  53.86846221522636  4.972401949785991  -3.6867569671275193  27.32893220371864  25.49785015124922  4.100268215747339  27.78228497754045  0.000000
2.847  0.000000  0.000000  0.000000  -25.717111487966267  -1.2696536576965478  3.8673366149185564  53.231096309963064  4.487103757729713  -3.940635772068375  24.661098730399654  23.935098714577244  7.4174684610855675  27.865309463811712  0.000000
2.886  0.000000  0.000000  0.000000  -25.76950014924465  -1.2795935724545418  3.6955425454227764  52.502484279938116  4.069820191545863  -4.296345626024007  22.29573014921593  22.39688488362793  10.406619339072593  27.836027938856034  0.000000
2.925  0.000000  0.000000  0.000000  -25.8398881586172  -1.2299430071567208  3.6079365564882617  51.70241008290118  3.6914148030174996  -4.761075372487029  20.31836549270889  20.90259286206685  12.98404374284045  27.699756823123757  0.000000
2.964  0.000000  0.000000  0.000000  -25.936070245953534  -1.133513881977575  3.6110546700991115  50.87371971866035  3.3285569797586962  -5.3269599952958995  18.74244232764588  19.468033891488393  15.134019561901603  27.46645466112473  0.000000
3.003  0.000000  0.000000  0.000000  -26.054375311591272  -1.0042852875699013  3.701128108841527  50.05651199846736  2.973140023086345  -5.989638010833805  17.470402743868267  18.101739866320862  16.961036005384823  27.180192215659083  0.000000
3.042  0.000000  0.000000  0.000000  -26.18482818363475  -0.8753365633553906  3.873170837245857  49.309192353455806  2.636648222774278  -6.7484331945299365  16.300631821880955  16.804176455805717  18.668988649568533  26.917919078599628  0.000000
3.081  0.000000  0.000000  0.000000  -26.29623209896952  -0.7727474173485124  4.130592820358179  48.69093920328569  2.316371146394044  -7.5681615013550365  14.990716824525744  15.563836351602962  20.440586552122646  26.727143785476926  0.000000
3.12  0.000000  0.000000  0.000000  -26.386864455292304  -0.7040810558114309  4.500110403045238  48.232281053770784  1.9814178236992581  -8.377793166646049  13.372834440842203  14.365226204450368  22.326222244854087  26.57039988251492  0.000000
3.159  0.000000  0.000000  0.000000  -26.482464591219326  -0.6669841883460708  4.983462557842381  47.90717146564338  1.6093624076817796  -9.122466944303243  11.461376632476764  13.234984317335607  24.22992987905047  26.362829548871552  0.000000
3.198  0.000000  0.000000  0.000000  -26.61166525124546  -0.6167211231363428  5.519748335303794  47.683287992753215  1.2097875289268634  -9.724091420504651  9.435895131597404  12.211278578494149  25.969333194406843  26.075551959391642  0.000000
3.237  0.000000  0.000000  0.000000  -26.78715040255957  -0.5137440274225539  6.030119431912456  47.56083179180967  0.825705968273725  -10.127642284519395  7.513205451023298  11.310212121586487  27.363432342573187  25.78212859276045  0.000000
3.276  0.000000  0.000000  0.000000  -26.96982687768038  -0.3733946564572293  6.479623344563495  47.508808157492844  0.5190113579337041  -10.35451801085145  5.822793217143359  10.49525912371941  28.315436807744735  25.577789754993432  0.000000
3.315  0.000000  0.000000  0.000000  -27.10853986174002  -0.23872374289464418  6.8615390258601305  47.50349201030417  0.3166675243651547  -10.46014383856548  4.381550596673176  9.741007384328162  28.824951289124233  25.50093160002727  0.000000
3.354  0.000000  0.000000  0.000000  -27.18670867495423  -0.14854848582603444  7.183873378261539  47.550348444899804  0.20680692792063274  -10.479316500546231  3.1400246718957514  9.057942968973874  28.950369844103356  25.534736255053428  0.000000
3.393  0.000000  0.000000  0.000000  -27.2179311120637  -0.12023295084323218  7.450834284053442  47.66834255474416  0.15204761767627425  -10.413712276322494  2.034178424413624  8.487634659342406  28.75935664936388  25.63064927982317  0.000000
3.432  0.000000  0.000000  0.000000  -27.223704469478896  -0.14745973681476285  7.660815366328953  47.86730566211642  0.1286858622652835  -10.263464093480696  1.021387204775474  8.057470019149571  28.31383102964084  25.771375950860335  0.000000
3.471  0.000000  0.000000  0.000000  -27.229839561084905  -0.21016709487802307  7.806800957877693  48.125976787878116  0.13237173556912366  -10.037209434360513  0.09932943001851789  7.771453375805175  27.678889820199593  25.94751896451144  0.000000
3.51  0.000000  0.000000  0.000000  -27.27245400013774  -0.3006014186978445  7.871465846928047  48.42685230067123  0.18385503763938  -9.752721275189012  -0.7162721020981806  7.618340470124255  26.90876293017874  26.143463367510957  0.000000
3.549  0.000000  0.000000  0.000000  -27.378433850339928  -0.4116332583881595  7.832464155303257  48.7575751988359  0.30165175876150696  -9.409052625349293  -1.387883563198157  7.582264250971941  26.060983058224856  26.329002184007553  0.000000
3.588  0.000000  0.000000  0.000000  -27.527234945336215  -0.5223006777913626  7.695018080337291  49.1042496238831  0.4846331220439708  -9.007698063511036  -1.8582511858836828  7.6203339799475645  25.20413377798713  26.51643401559687  0.000000
3.627  0.000000  0.000000  0.000000  -27.684170796128594  -0.610775596571142  7.492886630303083  49.448865039456045  0.703668405731006  -8.560562556068788  -2.061909257665378  7.691003152350038  24.411909028322338  26.71876553785524  0.000000
3.666  0.000000  0.000000  0.000000  -27.82664850550451  -0.6816003867258827  7.264414980509297  49.76563608055532  0.9465920962693863  -8.118064111187957  -1.9778104295900931  7.766389115573878  23.7227990122663  26.941308886268622  0.000000
3.705  0.000000  0.000000  0.000000  -27.955493793319135  -0.7371111307006171  7.0209515801621265  50.064038682600156  1.2053728666157764  -7.702145115460985  -1.6432988900039933  7.84993822462089  23.126606497887458  27.144982076241437  0.000000
3.7439999999999998  0.000000  0.000000  0.000000  -28.065165962505894  -0.7710631204627345  6.7856754780719  50.31265733705846  1.4693435264249088  -7.3292725183305425  -1.149015997759248  7.92888993918678  22.58334732850227  27.327032104563624  0.000000
3.783  0.000000  0.000000  0.000000  -28.167329000974988  -0.7893945245693151  6.553659443341548  50.546495956806936  1.7443787964526578  -7.0007202411949665  -0.5876191101008679  7.994325993246279  22.064671675203932  27.4755769535509  0.000000
3.822  0.000000  0.000000  0.000000  -28.228379376668393  -0.8025773811469049  6.323750995473318  50.737782794283206  2.0429293735363094  -6.726135847377852  -0.06800352032052485  7.963618026842808  21.56155235239549  27.60730121855143  0.000000
